<?xml version="1.0" standalone="no"?>
<!DOCTYPE svg PUBLIC "-//W3C//DTD SVG 20010904//EN"
 "http://www.w3.org/TR/2001/REC-SVG-20010904/DTD/svg10.dtd">
<svg version="1.0" xmlns="http://www.w3.org/2000/svg"
 width="2048.000000pt" height="2048.000000pt" viewBox="0 0 2048.000000 2048.000000"
 preserveAspectRatio="xMidYMid meet">
<metadata>
Created by potrace 1.14, written by Peter Selinger 2001-2017
</metadata>
<g transform="translate(0.000000,2048.000000) scale(0.100000,-0.100000)"
fill="#000000" stroke="none">
<path d="M6790 14665 c0 -3 572 -951 1272 -2107 699 -1157 1279 -2116 1289
-2133 l17 -30 -352 -580 c-331 -547 -754 -1244 -1920 -3169 -273 -451 -496
-821 -496 -823 0 -2 392 -2 872 -1 l872 3 96 160 c53 88 223 367 377 620 154
253 535 881 848 1395 312 514 571 939 575 943 9 10 -4 30 695 -1128 286 -473
673 -1114 861 -1425 l342 -565 871 -3 c479 -1 871 0 871 2 0 2 -49 84 -109
182 -59 99 -438 724 -841 1389 -403 666 -926 1530 -1163 1920 -237 391 -481
794 -542 896 l-113 186 88 144 c109 180 970 1597 1175 1934 924 1520 1317
2168 1322 2180 4 13 -104 15 -863 15 l-869 0 -849 -1405 c-467 -773 -854
-1413 -861 -1421 -9 -13 -33 21 -136 193 -69 114 -375 620 -679 1123 -304 503
-634 1049 -732 1213 l-180 297 -869 0 c-478 0 -869 -2 -869 -5z"/>
</g>
</svg>
